# xmcd
#
# Track frame offsets: 
#        150
#        20404
#        35670
#        50159
#        76110
#        83939
#        104241
#        118943
#        142852
#        164797
#        187142
#        201795
#        218316
#
# Disc length: 3373 seconds
#
# Revision: 0
# Processed by: cddbd v1.5.2PL0 Copyright (c) Steve Scherf et al.
# Submitted via: ExactAudioCopyFreeDBPlugin 1.0
#
DISCID=bd0d2b0d
DTITLE=Childish Gambino - Camp
DYEAR=2018
DGENRE=No
TTITLE0=Outside
TTITLE1=Fire Fly
TTITLE2=Bonfire
TTITLE3=All The Shine
TTITLE4=Letter Home
TTITLE5=Heartbeat
TTITLE6=Backpackers
TTITLE7=L.E.S.
TTITLE8=Hold You Down
TTITLE9=Kids (Keep Up)
TTITLE10=You See Me
TTITLE11=Sunrise
TTITLE12=That Power
EXTD=
EXTT0=
EXTT1=
EXTT2=
EXTT3=
EXTT4=
EXTT5=
EXTT6=
EXTT7=
EXTT8=
EXTT9=
EXTT10=
EXTT11=
EXTT12=
PLAYORDER=
